<?xml version="1.0" encoding="UTF-8" standalone="no"?>
<!-- Created with Inkscape (http://www.inkscape.org/) -->

<svg
   width="115.20829mm"
   height="79.606117mm"
   viewBox="0 0 115.20829 79.606117"
   version="1.1"
   id="svg5"
   xml:space="preserve"
   inkscape:version="1.2.2 (732a01da63, 2022-12-09, custom)"
   sodipodi:docname="function.svg"
   xmlns:inkscape="http://www.inkscape.org/namespaces/inkscape"
   xmlns:sodipodi="http://sodipodi.sourceforge.net/DTD/sodipodi-0.dtd"
   xmlns="http://www.w3.org/2000/svg"
   xmlns:svg="http://www.w3.org/2000/svg"><sodipodi:namedview
     id="namedview7"
     pagecolor="#782e2e"
     bordercolor="#000000"
     borderopacity="0.25"
     inkscape:showpageshadow="2"
     inkscape:pageopacity="0"
     inkscape:pagecheckerboard="0"
     inkscape:deskcolor="#d1d1d1"
     inkscape:document-units="mm"
     showgrid="false"
     inkscape:zoom="1.1893044"
     inkscape:cx="227.44387"
     inkscape:cy="220.71725"
     inkscape:window-width="1920"
     inkscape:window-height="1147"
     inkscape:window-x="0"
     inkscape:window-y="0"
     inkscape:window-maximized="1"
     inkscape:current-layer="layer1" /><defs
     id="defs2" /><g
     inkscape:label="Layer 1"
     inkscape:groupmode="layer"
     id="layer1"
     transform="translate(-35.978955,-62.351386)"><path
       id="path920"
       style="fill:#ffffff;stroke-width:0.264583"
       d="M 93.047823 62.35242 C 90.35248 62.409342 88.03017 64.608406 88.005237 67.888516 C 87.993376 69.448877 88.468671 70.80348 89.33022 71.665029 C 89.884824 72.21963 89.770318 72.918109 88.861515 74.528421 L 88.030558 76.001199 L 88.60365 76.574807 C 88.918798 76.890437 89.739132 77.3479 90.426794 77.591283 C 92.037785 78.16144 94.01749 78.163935 95.485917 77.597484 C 97.231401 76.924158 97.380642 76.498479 96.476038 74.769749 C 95.574381 73.046656 95.636348 72.637037 97.092021 70.706432 C 98.084082 69.390702 98.159656 69.169271 98.159656 67.571222 C 98.159656 65.438611 97.618929 64.227042 96.268298 63.333238 C 95.214659 62.635973 94.102522 62.330146 93.047823 62.35242 z M 93.119653 63.294998 C 93.254715 63.295934 93.391549 63.30208 93.530481 63.313601 C 95.966197 63.515589 97.365906 65.065864 97.365906 67.561921 C 97.365906 68.474466 97.123869 69.075625 96.175281 70.51988 C 95.520437 71.516897 94.984656 72.539856 94.984656 72.793126 C 94.984656 73.116896 94.69007 73.306979 93.992468 73.433397 C 93.446765 73.532288 92.762156 73.655069 92.471114 73.706248 C 91.403633 73.893948 90.644461 73.464864 90.461418 72.569884 C 90.365208 72.099465 89.965256 71.250837 89.572583 70.684211 C 88.739006 69.48136 88.567568 68.129365 89.024813 66.366645 C 89.52361 64.443728 91.093731 63.280958 93.119653 63.294998 z M 94.28444 66.201797 C 94.046603 66.197806 93.878851 66.364702 93.554252 66.771788 C 93.021472 67.439956 92.923426 67.466657 92.124365 67.165046 C 91.119653 66.785808 90.401442 67.095694 90.271765 67.963963 C 90.171903 68.632591 91.174304 69.290745 91.617419 68.84763 C 91.814922 68.650126 91.767392 68.517266 91.456706 68.398045 C 90.85091 68.165581 90.901456 67.756224 91.535771 67.756224 C 92.376311 67.756224 92.652422 68.637689 92.451477 70.676976 C 92.334615 71.862966 92.365748 72.518724 92.538293 72.518724 C 92.908194 72.518724 93.124655 71.58104 93.128955 69.960224 C 93.131093 69.15011 93.32132 68.261369 93.595593 67.779478 C 94.141208 66.820841 94.791594 66.686636 94.670463 67.557787 C 94.616294 67.947354 94.724944 68.153099 94.984656 68.153099 C 95.220618 68.153099 95.41508 67.858831 95.46473 67.427562 C 95.530566 66.855655 95.398005 66.633969 94.837378 66.37853 C 94.595238 66.268204 94.427142 66.204192 94.28444 66.201797 z M 110.88653 67.846658 C 109.97617 67.886353 108.98761 68.15984 107.99781 68.677098 C 106.30333 69.562619 105.74502 70.063784 104.83883 71.514134 C 104.41047 72.199736 103.95407 72.66371 103.82236 72.547146 C 103.5041 72.265482 98.409403 70.931224 97.652193 70.931224 C 96.288548 70.931224 97.425465 71.624244 99.636051 72.140453 C 103.05225 72.938192 104.03999 73.304846 103.88179 73.717101 C 103.80759 73.91047 103.66793 74.48807 103.57173 75.000743 C 103.46685 75.559775 103.14295 76.099173 102.76248 76.348464 C 101.79363 76.983284 101.93306 77.923173 103.11543 78.726614 C 104.3131 79.540456 105.52271 79.585198 106.45786 78.849604 C 107.29845 78.188399 107.34667 77.472922 106.601 76.727253 C 106.16561 76.291886 106.08366 75.98035 106.21653 75.272044 C 106.30953 74.776359 106.50322 74.370807 106.64699 74.370807 C 107.1264 74.370807 109.64411 75.743307 111.78518 77.17167 C 114.95817 79.288453 116.80713 80.826747 118.01581 82.35585 C 119.35985 84.056186 121.7076 88.033946 122.51631 89.981224 C 122.84871 90.781583 123.20659 91.555496 123.31161 91.701016 C 123.63789 92.153135 124.88206 96.325155 124.88206 96.966844 C 124.88206 97.536164 124.74969 97.585679 122.82327 97.734239 C 121.69068 97.821579 120.47695 97.999317 120.12627 98.129047 C 119.61485 98.318227 119.26715 98.209135 118.36979 97.576626 C 116.97362 96.592517 114.61794 96.419992 113.4042 97.213341 C 111.76409 98.28539 110.43652 103.35876 111.0736 106.11874 C 111.49292 107.93533 112.65395 110.24903 113.6724 111.29775 C 115.07126 112.7382 116.51023 112.47208 118.4225 110.41874 C 119.06488 109.72896 119.59039 108.96464 119.59039 108.72013 C 119.59039 108.26051 120.59261 108.0617 123.69143 107.90674 L 125.01435 107.8406 L 125.1022 108.76561 C 125.20239 109.82158 124.50449 112.67445 123.8015 114.08208 C 123.26377 115.15882 122.56831 115.48696 118.53257 116.56616 C 115.66279 117.33358 110.42843 118.29164 109.10524 118.29164 L 108.21382 118.29164 L 108.16783 115.57966 C 108.14273 114.08808 108.10275 107.83711 108.07895 101.68852 C 108.05517 95.539939 107.98023 90.453017 107.91203 90.384817 C 107.79064 90.263467 89.65906 90.153602 79.846045 90.214802 L 74.893892 90.245807 L 74.888208 104.05375 C 74.885023 111.6482 74.790546 117.95366 74.678402 118.06581 C 74.217188 118.52702 64.6869 116.83347 64.026339 116.17291 C 63.487711 115.63428 62.483771 112.74601 62.379927 111.43573 C 62.309758 110.55035 62.336078 110.52556 63.729716 110.16604 C 65.112081 109.80942 65.162584 109.81588 65.57043 110.40737 C 66.650551 111.97387 67.390791 112.47081 68.644145 112.47081 C 69.702303 112.47081 70.015145 112.3282 71.045032 111.37888 C 72.973175 109.60158 73.425721 107.25016 72.604626 103.27499 C 72.115743 100.90815 71.688029 99.968781 70.546871 98.755882 C 68.665562 96.756304 66.990262 96.578521 65.239184 98.192609 C 64.602063 98.779889 64.006017 99.557953 63.914718 99.921703 C 63.755548 100.55588 62.876702 101.09372 61.999072 101.09372 C 60.97404 101.09372 62.714171 92.904561 64.289888 90.313504 L 64.777714 89.512002 L 66.9073 90.265961 C 68.07871 90.680481 69.512942 91.262376 70.094185 91.558906 C 72.155986 92.610754 72.568272 92.375452 75.345544 88.564256 C 76.178627 87.421027 77.430169 85.770291 78.12677 84.896263 C 79.638296 82.999748 80.432572 81.518132 80.432572 80.593167 C 80.432572 79.819314 78.76027 77.864082 77.357308 76.997004 C 76.86563 76.693131 76.463822 76.359557 76.463822 76.255964 C 76.463822 75.91232 82.903815 72.865331 85.525802 71.96837 C 87.139189 71.416443 88.105489 70.947238 88.105489 70.715733 C 88.105489 70.485812 87.945593 70.406504 87.683809 70.506961 C 87.452008 70.59591 86.945992 70.74499 86.55933 70.83769 C 84.743486 71.273013 77.995018 74.338345 76.483459 75.414671 C 76.103442 75.685267 75.344144 75.905597 74.790023 75.905597 C 74.237504 75.905597 73.58425 76.081684 73.338432 76.297305 C 73.092613 76.512926 72.636829 76.766802 72.325057 76.861611 C 72.013285 76.956423 71.611096 77.388866 71.431571 77.822276 C 71.037404 78.77388 69.30389 80.720807 68.85085 80.720807 C 68.330934 80.720807 68.468204 80.195399 69.345394 78.828416 C 70.045288 77.737716 70.146856 77.367982 70.041475 76.292137 C 69.82396 74.071446 69.153754 72.82377 66.990499 70.612897 C 64.774385 68.347998 64.321327 68.209813 63.036218 69.409353 C 62.085063 70.297176 62.275087 71.012364 63.763822 72.147687 C 64.491426 72.702565 65.086739 73.183002 65.086739 73.215322 C 65.086739 73.247643 64.39162 73.696123 63.54213 74.212161 C 60.097555 76.304629 57.554065 79.843383 57.587455 82.496926 C 57.617647 84.896423 58.722136 85.790035 60.92937 85.200637 C 62.113773 84.884365 64.308874 83.761827 65.578699 82.823005 C 66.21238 82.354503 66.444903 82.30891 66.914018 82.559972 C 67.470115 82.857587 67.471971 82.881116 67.011686 83.674115 C 66.753071 84.119668 66.388197 84.544581 66.200883 84.618761 C 65.829138 84.76598 64.292989 87.876335 64.292989 88.481574 C 64.292989 88.687594 63.985039 89.407263 63.608793 90.080443 C 62.170665 92.65353 61.341355 95.499358 61.190336 98.381745 C 61.100211 100.10191 60.9399 101.10098 60.75212 101.11388 C 60.752176 101.11446 60.752064 101.11485 60.75212 101.11543 C 59.523103 101.10314 58.943014 101.38277 58.210673 100.69478 C 57.815363 100.3234 56.941442 100.0602 56.129663 99.976996 C 55.429374 99.905226 54.261048 99.566961 53.533439 99.225621 C 52.10819 98.557002 48.948045 97.919137 45.664669 97.637087 C 43.698071 97.468158 43.594657 97.425634 43.063277 96.565835 C 42.329818 95.379076 41.567084 94.877049 40.497025 94.877049 C 38.573567 94.877049 37.569174 95.971256 36.611475 99.110383 C 35.926435 101.35579 35.757494 108.31251 36.305033 111.72357 C 36.999503 116.04991 37.652623 117.84136 39.013912 119.15257 C 40.86116 120.93186 42.331941 120.62894 43.85341 118.15625 C 44.706879 116.76919 44.575309 116.82203 49.167814 116.0308 C 51.325052 115.65914 53.581175 114.87769 54.267244 114.2645 C 54.556284 114.00615 55.011026 113.28874 55.278035 112.67028 C 55.754625 111.5664 55.787447 111.5458 57.060356 111.5458 C 57.956365 111.5458 58.564875 111.3823 59.029744 111.01663 C 59.361342 110.7558 60.652776 110.27938 61.224959 110.18309 C 61.317358 110.54819 61.385283 110.77762 61.458537 110.97581 C 61.520384 111.14313 61.72595 112.06887 61.915356 113.03253 C 62.247739 114.72362 62.238795 114.80656 61.663175 115.41378 C 60.791033 116.33381 60.527572 117.21539 60.726282 118.54589 C 61.033036 120.59981 61.871438 122.42729 62.95767 123.40864 C 64.656822 124.94372 65.619052 125.31937 68.790906 125.68654 C 70.664395 125.90341 70.819633 125.97281 71.569031 126.92574 C 72.005592 127.48087 72.673188 128.25824 73.053178 128.65328 C 73.622668 129.24533 73.797012 129.78423 74.045365 131.7208 C 74.505026 135.30502 74.459101 135.9889 73.740474 136.26212 C 72.99204 136.54667 72.654106 136.96475 72.286816 138.05736 C 71.722048 139.73745 72.830446 141.68189 74.479447 141.90415 C 75.784427 142.08005 76.554263 141.83323 77.353691 140.98276 C 78.040891 140.25168 78.099492 140.04226 77.989827 138.71985 C 77.886285 137.47127 77.747 137.16319 77.017794 136.56804 L 76.166683 135.87351 L 76.493278 133.61474 L 76.819873 131.35648 L 78.891064 132.14713 L 80.961739 132.93726 L 80.961739 134.29583 C 80.961739 135.49856 80.870684 135.72193 80.167989 136.24145 C 79.070645 137.05276 79.062414 138.39304 80.147835 139.47846 C 81.967539 141.29817 85.197887 139.47615 84.368766 137.09773 C 84.216755 136.66167 83.86423 136.23228 83.585351 136.14378 C 83.250051 136.03736 83.07984 135.74239 83.08254 135.27303 C 83.089969 133.97144 83.336349 133.87303 85.163033 134.44156 C 89.229331 135.70713 97.310949 135.7644 101.99611 134.56093 C 105.50057 133.6607 105.34222 133.66224 105.6393 134.53148 C 105.86966 135.20549 105.80639 135.38008 105.09153 136.04818 C 104.6472 136.46344 104.20668 137.04525 104.11278 137.34112 C 103.84353 138.18945 104.47026 139.68996 105.25948 140.08721 C 106.74154 140.83319 107.2631 140.81157 108.29547 139.9606 C 109.15602 139.25126 109.27216 139.01399 109.27216 137.97158 C 109.27216 137.04852 109.12036 136.63639 108.58124 136.09727 C 107.98832 135.50441 107.9084 135.24016 108.02107 134.24054 C 108.10239 133.51906 108.39113 132.81912 108.77865 132.40241 C 109.61623 131.50175 111.65144 130.10756 111.84564 130.30176 C 111.931 130.38712 112.10012 131.7278 112.22133 133.28091 C 112.43169 135.97627 112.41671 136.12244 111.8875 136.49311 C 111.28134 136.91768 110.59507 138.3412 110.59507 139.17409 C 110.59507 139.99669 112.49651 141.83956 113.34529 141.83956 C 114.96104 141.83956 116.41591 140.29465 116.41591 138.57877 C 116.41591 137.82731 115.24358 136.28331 114.67286 136.28331 C 114.20097 136.28331 114.20263 135.71727 114.68164 133.44007 C 114.89214 132.43941 115.14508 130.62058 115.24388 129.39846 L 115.42372 127.17637 L 117.16986 125.24832 C 118.51182 123.76663 119.13226 123.27977 119.84877 123.14561 C 122.26182 122.69379 123.99267 121.28052 125.21278 118.76603 C 126.10986 116.9173 126.17462 115.35036 125.3859 114.56164 C 124.84814 114.02387 124.84337 113.95656 125.23759 112.37882 C 125.46131 111.48346 125.72829 110.11145 125.83083 109.32991 L 126.01739 107.90881 L 126.75378 107.99563 C 127.31598 108.5409 127.82081 108.76951 128.90972 108.99195 C 130.22123 109.25987 130.4406 109.38894 130.87911 110.14899 C 131.4485 111.13589 132.69289 111.82389 137.38103 113.74411 C 140.15746 114.88132 140.55666 115.11546 140.78496 115.74244 C 141.323 117.22001 143.28449 118.02336 144.73097 117.35836 C 145.19112 117.14681 146.54539 115.59054 147.32306 114.37973 C 149.8831 110.39388 151.74934 102.06228 151.03291 97.817438 C 150.88737 96.954859 150.79464 96.149713 150.82724 96.027883 C 150.94064 95.604684 149.54339 93.797543 148.80824 93.416673 C 147.31402 92.642554 146.24086 92.904982 144.38991 94.496711 C 144.05197 94.78729 143.46557 94.911374 142.79259 94.834675 C 141.73256 94.713895 140.63397 94.774225 137.01775 95.152485 C 134.47506 95.418444 133.73029 95.693469 132.82059 96.702778 C 132.13044 97.468457 131.95772 97.525754 131.05791 97.284654 C 130.36415 97.098754 129.77428 97.150807 129.12056 97.456737 C 128.60361 97.698637 128.09244 97.846049 127.98471 97.783849 C 125.83867 97.605089 125.67581 97.550565 125.67581 97.008185 C 125.67581 94.875467 122.74364 87.899425 120.39086 84.434793 C 119.80515 83.572299 119.32581 82.809356 119.32581 82.739806 C 119.32581 82.670255 119.66811 82.27141 120.08648 81.853038 C 120.77616 81.163345 120.84794 80.9204 120.85594 79.25268 C 120.86142 78.038438 120.72567 77.196276 120.457 76.774278 C 120.23315 76.422691 120.01539 75.668051 119.97279 75.097378 C 119.88671 73.943269 119.33075 73.172884 118.41888 72.944021 C 118.08678 72.860668 117.50956 72.330921 117.13628 71.766832 C 116.70924 71.121543 116.17991 70.679975 115.70897 70.576207 C 115.25563 70.476316 114.75132 70.070423 114.42998 69.546812 C 113.70381 68.363524 112.40379 67.780499 110.88653 67.846658 z M 111.50096 68.717922 C 112.42728 68.731054 112.66382 68.876879 113.26933 69.554564 C 114.26853 70.672832 114.26832 71.666598 113.26778 72.625178 C 112.6192 73.24656 112.41519 73.314074 111.94486 73.06236 C 111.61637 72.886557 111.38882 72.504065 111.38882 72.12805 C 111.38882 71.297824 111.91142 70.981325 112.09886 71.698102 C 112.26586 72.336718 112.66109 72.428735 112.87245 71.877936 C 113.29158 70.7857 111.35017 69.480198 109.7512 69.77884 C 107.59673 70.181229 106.17179 71.850932 105.55042 74.701537 C 105.26174 76.025901 105.13873 76.222891 104.59957 76.222891 C 104.25893 76.222891 103.97997 76.17474 103.97997 76.115921 C 103.97997 75.457063 105.45584 71.948953 106.03979 71.219579 C 107.17514 69.801281 109.29555 68.744963 111.05861 68.719473 C 111.22217 68.717109 111.36863 68.716046 111.50096 68.717922 z M 64.243896 69.60314 C 64.321314 69.597167 64.387038 69.614506 64.433549 69.661017 C 64.525079 69.752547 64.467304 70.075815 64.304875 70.37932 C 63.953225 71.036382 63.156969 71.127656 63.281164 70.496625 C 63.360962 70.09116 63.908418 69.629023 64.243896 69.60314 z M 65.389563 70.459418 C 65.528682 70.476306 65.706325 70.634517 66.050504 70.949311 C 67.977059 72.711386 68.499744 73.337416 68.356824 73.709866 C 68.117717 74.332964 67.645169 74.188339 66.045854 73.003449 C 64.459464 71.828135 64.354975 71.617656 64.960649 70.817019 C 65.149812 70.566966 65.250444 70.442531 65.389563 70.459418 z M 109.89589 70.666641 C 110.79671 70.666641 110.83343 70.700858 110.59869 71.318281 C 110.08287 72.674972 110.95408 73.842155 112.57945 73.972382 C 112.94068 74.001325 113.1345 74.23724 113.1913 74.716006 C 113.27648 75.434404 114.34963 76.487474 114.99635 76.487474 C 115.19501 76.487474 115.35757 76.678047 115.35757 76.910704 C 115.35757 77.143362 115.72727 77.679143 116.17923 78.101329 C 116.63118 78.523516 116.92587 78.868724 116.83397 78.868724 C 116.74208 78.868724 116.8516 79.225912 117.07736 79.662474 C 117.30311 80.099037 117.45491 80.451389 117.41481 80.445889 C 117.37469 80.440338 116.68659 79.892484 115.88622 79.228392 C 113.73918 77.44691 109.21953 74.525715 107.97508 74.115009 C 106.57644 73.653414 106.56201 73.049672 107.91772 71.693968 C 108.72974 70.881949 109.14442 70.666641 109.89589 70.666641 z M 115.21805 71.340501 C 115.31347 71.325975 115.47449 71.380864 115.73636 71.500182 C 117.05977 72.103166 117.2675 74.458428 116.07122 75.296332 C 115.30176 75.835283 114.73785 75.795671 114.16436 75.161974 C 113.77994 74.737194 113.74015 74.511008 113.96696 74.037494 C 114.12312 73.711487 114.31757 73.236406 114.39897 72.981745 C 114.48036 72.727083 114.67375 72.518724 114.82841 72.518724 C 115.26803 72.518724 115.47377 73.341722 115.09299 73.577057 C 114.89676 73.698324 114.82635 73.983902 114.92762 74.247817 C 115.09424 74.682018 115.13261 74.681059 115.62732 74.233348 C 116.38142 73.550899 116.26606 71.989557 115.46144 71.989557 C 115.25873 71.989557 115.09299 71.813528 115.09299 71.598367 C 115.09299 71.439185 115.12262 71.355028 115.21805 71.340501 z M 118.1295 73.577057 C 118.34443 73.577057 118.71474 73.874323 118.9527 74.237482 C 119.46883 75.025212 119.28765 76.466607 118.59355 77.092088 L 118.59303 77.092088 C 117.53178 78.048426 116.15081 77.835114 116.15081 76.71485 C 116.15081 76.071377 116.55783 75.889204 116.94714 76.358283 C 117.40072 76.904816 117.90448 76.850232 118.35584 76.205837 C 118.7786 75.602256 118.67333 74.81725 118.10676 74.347036 C 117.62608 73.948104 117.63716 73.577057 118.1295 73.577057 z M 95.043567 73.975999 C 95.161746 73.977476 95.282777 74.076982 95.345357 74.240066 C 95.520678 74.696944 95.504135 74.705002 95.022379 74.399746 C 94.801651 74.259884 94.76532 74.109301 94.928328 74.008556 C 94.964781 73.986027 95.004174 73.975507 95.043567 73.975999 z M 65.684635 73.992536 C 65.925361 73.991056 66.136796 74.120572 66.5559 74.379592 C 67.018947 74.665771 67.757979 74.899974 68.198177 74.899974 C 69.0912 74.899974 69.320072 75.25586 69.320072 76.646637 C 69.320072 78.645143 65.845518 82.204871 62.397497 83.738711 C 59.872629 84.861892 58.690593 84.802298 58.372937 83.536656 C 58.115097 82.509345 58.687179 80.356768 59.573897 79.018069 C 60.573973 77.50823 63.214866 75.095936 64.638704 74.391478 C 65.174088 74.126588 65.443909 73.994016 65.684635 73.992536 z M 93.320675 74.47106 C 94.030401 74.49257 94.163788 74.588747 94.068949 74.835895 C 93.798853 75.539756 94.440659 75.985219 95.451811 75.795527 C 96.171906 75.660436 96.348709 75.702946 96.255379 75.988796 C 96.189559 76.190399 95.812404 76.513206 95.416671 76.706065 C 94.661267 77.074212 92.75055 77.298855 92.074239 77.099323 C 90.681606 76.688456 89.428406 76.146308 89.428406 75.95469 C 89.428406 75.831326 89.696297 75.692682 90.023718 75.646182 C 90.420516 75.589828 90.614278 75.384974 90.605078 75.032266 C 90.592688 74.556169 90.773217 74.500056 92.406002 74.471576 C 92.783625 74.46499 93.084099 74.463889 93.320675 74.47106 z M 92.176042 74.899974 C 91.415577 74.899974 91.082274 75.533464 91.547656 76.094216 C 91.992532 76.630255 92.779103 76.590332 92.925867 76.024453 C 93.119747 75.276912 92.868636 74.899974 92.176042 74.899974 z M 117.42515 74.919611 C 117.51561 74.904765 117.64442 74.964736 117.79567 75.115982 C 118.01752 75.337854 118.02677 75.511192 117.82667 75.711294 C 117.62657 75.911395 117.49343 75.861965 117.37037 75.541279 C 117.23056 75.176938 117.27437 74.944354 117.42515 74.919611 z M 65.822611 75.200731 C 65.354604 75.222144 64.856118 75.398167 64.394792 75.755219 C 60.710104 78.607048 59.355242 81.148367 60.866842 82.372386 C 61.556766 82.931055 61.925927 82.949642 63.044486 82.480907 C 64.989145 81.665992 67.732572 78.475055 67.732572 77.02801 C 67.732572 75.855526 66.852227 75.153623 65.822611 75.200731 z M 66.227755 75.856505 C 66.256333 75.859219 66.282483 75.864616 66.305786 75.873558 C 66.969288 76.128169 67.255317 76.952235 66.909367 77.611953 C 66.368059 78.644212 65.098179 80.138499 64.082149 80.937848 C 63.023509 81.770724 62.296896 82.041789 61.603231 81.862857 C 60.925765 81.688102 60.857617 81.164386 61.365002 80.034028 C 62.004009 78.610443 65.341816 75.772372 66.227755 75.856505 z M 74.451542 76.687462 C 74.704782 76.65217 75.045339 76.80276 75.804431 77.184072 C 77.43245 78.00187 79.641204 80.113247 79.632104 80.843281 C 79.625823 81.348899 78.943653 82.40289 76.728406 85.329312 C 76.219083 86.002145 75.022536 87.591574 74.069653 88.861913 C 72.177525 91.38439 71.55728 91.70889 70.378922 90.791511 C 70.015497 90.508571 69.062996 90.081768 68.262256 89.843248 C 65.994091 89.167629 65.400125 88.903627 65.245902 88.501728 C 65.006299 87.877338 65.373221 87.335391 66.035002 87.335391 C 66.885316 87.335391 67.565743 86.266252 67.347583 85.272984 C 67.229494 84.735336 67.324941 84.333174 67.673661 83.902525 C 68.154316 83.308941 68.18625 83.304744 68.876172 83.756798 C 69.265844 84.012122 69.584656 84.421619 69.584656 84.66682 C 69.584656 85.285119 70.108469 85.747891 70.80887 85.747891 C 71.998322 85.747891 73.371568 82.923083 72.748287 81.75847 C 72.487336 81.270881 72.300503 81.227265 71.150968 81.385366 C 70.434941 81.483866 69.849239 81.48563 69.849239 81.3895 C 69.849239 81.293376 70.16063 80.805976 70.541703 80.306362 C 71.04121 79.651477 71.442335 79.397891 71.978308 79.397891 C 72.876787 79.397891 73.553406 78.782435 73.553406 77.964903 C 73.553406 77.63405 73.762472 77.173923 74.018494 76.942227 C 74.179055 76.796921 74.299598 76.708637 74.451542 76.687462 z M 103.71591 77.016641 C 104.33327 77.016641 104.50966 77.134233 104.50966 77.545807 C 104.50966 77.836848 104.63371 78.074974 104.78561 78.074974 C 104.93754 78.074974 105.02685 77.866615 104.98405 77.611953 C 104.92797 77.277922 105.05395 77.173629 105.4357 77.237299 C 106.2375 77.371028 106.49077 77.732832 106.10646 78.195897 C 105.68207 78.707284 104.60042 78.703885 103.64976 78.188145 C 102.66132 77.651932 102.69724 77.016641 103.71591 77.016641 z M 103.71591 77.281224 C 103.57039 77.281224 103.45132 77.400287 103.45132 77.545807 C 103.45132 77.691327 103.57039 77.810391 103.71591 77.810391 C 103.86143 77.810391 103.98049 77.691327 103.98049 77.545807 C 103.98049 77.400287 103.86143 77.281224 103.71591 77.281224 z M 119.78883 77.321015 C 120.35298 77.35624 120.1919 78.556088 119.4705 79.277485 C 118.73808 80.009904 118.5101 80.063743 118.05612 79.609764 C 117.60946 79.163083 117.66132 78.425819 118.15275 78.237238 C 118.47499 78.113587 118.52827 78.200661 118.39201 78.629979 C 118.25253 79.069425 118.3161 79.162709 118.70517 79.086799 C 119.04647 79.020208 119.19633 78.754012 119.20333 78.204165 C 119.20979 77.676226 119.36225 77.38837 119.66635 77.3298 C 119.71046 77.321306 119.75122 77.318667 119.78883 77.321015 z M 72.495072 77.545807 C 72.640593 77.545807 72.759656 77.783933 72.759656 78.074974 C 72.759656 78.384614 72.583151 78.604141 72.334359 78.604141 C 72.055356 78.604141 71.964389 78.460194 72.069775 78.185562 C 72.158104 77.955379 72.230489 77.717255 72.230489 77.656395 C 72.230489 77.595533 72.349551 77.545807 72.495072 77.545807 z M 64.636121 77.589216 C 63.982156 77.627392 62.970072 78.760496 62.970072 79.518297 C 62.970072 80.417205 63.823692 80.420124 64.71932 79.524498 C 65.466812 78.777006 65.48959 77.735162 64.761694 77.59645 C 64.72169 77.588827 64.679718 77.58667 64.636121 77.589216 z M 75.725883 78.604141 C 74.43228 78.604141 73.575683 80.108499 74.399866 80.932681 C 75.325213 81.858028 76.823702 80.739823 76.545471 79.331745 C 76.433563 78.765388 76.252014 78.604141 75.725883 78.604141 z M 75.617362 79.219607 C 75.699686 79.232602 75.758318 79.320504 75.822518 79.487808 C 75.909888 79.715509 75.904355 80.026232 75.810115 80.178722 C 75.560712 80.582258 74.876322 80.518742 74.876322 80.091905 C 74.876322 79.891442 75.053016 79.580202 75.26958 79.400475 C 75.428696 79.268423 75.535039 79.206612 75.617362 79.219607 z M 93.397156 79.275934 C 90.694905 79.266128 88.370072 81.592191 88.370072 84.305601 C 88.370072 85.080046 88.48575 86.018127 88.627421 86.390746 C 88.949599 87.238144 91.419895 88.845994 92.62511 88.992654 C 94.338278 89.201124 94.591461 89.173984 95.723112 88.660374 C 96.666242 88.232335 96.974436 87.892221 97.542122 86.652228 C 98.124716 85.379683 98.199474 84.939531 98.050102 83.667914 C 97.734692 80.982857 95.936227 79.285134 93.397156 79.275934 z M 93.355815 80.192674 C 95.585729 80.191115 96.809948 81.330054 97.217594 83.78522 C 97.45928 85.240843 96.786802 86.899098 95.685388 87.562767 C 91.984225 89.792925 87.842322 86.211771 89.731746 82.415278 C 90.532365 80.806563 91.531051 80.193974 93.355815 80.192674 z M 119.90872 80.255203 C 120.14431 80.271054 120.10207 80.576135 119.75265 81.109414 C 119.25566 81.86791 118.74931 81.962211 118.27057 81.385366 C 118.00323 81.063249 118.03328 80.963667 118.43645 80.837079 C 118.7075 80.751974 119.14895 80.563481 119.41779 80.4185 C 119.63682 80.300375 119.80163 80.247997 119.90872 80.255203 z M 67.677795 81.094945 C 67.918236 81.082465 68.256875 81.262851 68.967639 81.699559 C 69.670554 82.131445 70.28433 82.683392 70.33138 82.925841 C 70.45619 83.568976 69.897943 83.460661 68.305664 82.532583 C 67.049976 81.800692 66.938394 81.665881 67.292289 81.311986 C 67.425 81.179275 67.533531 81.102433 67.677795 81.094945 z M 94.835828 81.271161 C 94.69226 81.241779 94.40797 81.555026 94.111841 82.176016 C 93.750137 82.934519 93.524421 83.102057 92.865405 83.102057 C 91.802781 83.102057 91.315334 84.167333 91.940914 85.122089 C 92.237139 85.574184 92.597266 85.747891 93.238509 85.747891 C 94.384675 85.747891 94.737531 85.291434 94.696301 83.862734 C 94.677928 83.226056 94.749037 82.377761 94.854431 81.977578 C 94.973832 81.524218 94.947491 81.294014 94.835828 81.271161 z M 77.87769 81.734182 C 77.540464 81.749214 76.738938 82.395942 75.720198 83.507717 C 74.27748 85.082189 71.436739 88.921788 71.436739 89.297028 C 71.436739 89.382408 71.585567 89.448272 71.767468 89.443272 C 71.94937 89.438472 72.772567 88.51574 73.597331 87.392752 C 74.422095 86.269758 75.761549 84.61767 76.573893 83.721658 C 77.386237 82.825646 78.051322 82.02197 78.051322 81.93572 C 78.051322 81.794131 77.990098 81.729172 77.87769 81.734182 z M 71.734395 82.043724 C 72.217812 82.043724 72.274288 82.154937 72.137988 82.836441 C 72.0508 83.27238 71.784038 83.927225 71.54526 84.291649 C 71.07762 85.005354 70.378406 85.184072 70.378406 84.589822 C 70.378406 84.389359 70.557 84.076964 70.775281 83.895807 C 70.993561 83.71465 71.172156 83.223662 71.172156 82.804918 C 71.172156 82.205027 71.29139 82.043724 71.734395 82.043724 z M 112.44199 83.201276 C 112.27665 83.204197 112.10338 83.21984 111.91799 83.245201 C 107.98137 83.783731 107.79172 87.490353 111.49476 91.526349 C 112.09114 92.176359 112.93664 92.927885 113.3732 93.196015 C 114.58698 93.941494 116.9684 93.867427 117.91297 93.054938 C 118.547 92.509539 118.64499 92.232996 118.63799 91.004417 C 118.62855 89.280149 118.04805 88.092396 116.09706 85.804218 C 114.36258 83.769966 113.59933 83.180832 112.44199 83.201276 z M 93.283984 83.895807 C 93.789655 83.895807 93.942253 84.014948 93.876713 84.358828 C 93.828175 84.613489 93.521555 84.860098 93.195618 84.906598 C 92.745525 84.970813 92.603406 84.859463 92.603406 84.443578 C 92.603406 84.031733 92.771889 83.895807 93.283984 83.895807 z M 112.26939 83.990892 C 113.24917 83.97289 114.16196 84.580171 115.47023 86.071902 C 117.77669 88.701837 118.64143 91.438103 117.49439 92.476162 C 116.88557 93.027132 115.19841 93.250477 114.35247 92.892157 C 111.65328 91.748889 108.88483 87.200171 109.81993 85.445067 C 110.26162 84.616061 110.81417 84.23167 111.84409 84.036367 C 111.98816 84.009048 112.12942 83.993464 112.26939 83.990892 z M 112.51175 84.956725 C 111.98449 84.946013 111.53384 85.155031 111.25136 85.586143 C 110.55497 86.648975 111.17312 88.395407 112.91018 90.271646 C 114.17186 91.634394 114.48025 91.833307 115.33277 91.833307 C 116.57428 91.833307 116.94507 91.453437 116.94507 90.180178 C 116.94507 88.94989 115.58626 86.680293 114.23103 85.646605 C 113.64261 85.197799 113.03901 84.967436 112.51175 84.956725 z M 66.437561 85.483307 C 66.567511 85.483307 66.674239 85.654987 66.674239 85.864679 C 66.674239 86.29173 66.299152 86.607871 66.067558 86.376276 C 65.861082 86.169801 66.145524 85.483307 66.437561 85.483307 z M 111.9583 86.080687 C 112.12113 86.103949 112.30441 86.246733 112.38618 86.492031 C 112.44379 86.664837 112.30239 86.806224 112.07198 86.806224 C 111.84158 86.806224 111.65341 86.617536 111.65341 86.387128 C 111.65341 86.153511 111.79546 86.057424 111.9583 86.080687 z M 69.420841 86.541641 C 68.496692 86.541641 67.90029 88.191441 68.579032 88.870181 C 69.071816 89.36297 69.5318 89.248863 70.012537 88.515164 C 70.365292 87.976784 70.394104 87.713256 70.156714 87.192247 C 69.99367 86.834407 69.66258 86.541641 69.420841 86.541641 z M 114.41809 86.959703 C 114.51169 86.964207 114.61571 87.004417 114.71937 87.090444 C 114.9247 87.260844 115.09299 87.50483 115.09299 87.63253 C 115.09299 87.95151 114.36845 87.926004 114.16695 87.599974 C 113.95246 87.252942 114.13731 86.946193 114.41809 86.959703 z M 69.347978 87.335391 C 69.477928 87.335391 69.584656 87.507073 69.584656 87.716763 C 69.584656 88.143782 69.209569 88.459959 68.977974 88.228359 C 68.771499 88.02189 69.055942 87.335391 69.347978 87.335391 z M 112.9696 87.335391 C 113.35917 87.335391 113.53028 88.214539 113.18354 88.434548 C 112.67295 88.758528 112.49187 88.707365 112.19652 88.155496 C 111.93838 87.673136 112.25689 87.335391 112.9696 87.335391 z M 115.29143 88.429381 C 115.39123 88.405358 115.52744 88.458172 115.679 88.609732 L 115.67952 88.609732 C 115.91788 88.848361 115.91903 88.996536 115.68365 89.231916 C 115.44827 89.467296 115.33334 89.433165 115.20099 89.088255 C 115.06089 88.723162 115.12509 88.469419 115.29143 88.429381 z M 113.80159 89.053632 C 114.33808 89.006311 114.68369 89.307958 114.44548 89.693386 C 114.19994 90.090696 113.62994 90.053905 113.26726 89.616905 C 113.0281 89.328725 113.08992 89.219267 113.5613 89.096007 C 113.64459 89.074226 113.72495 89.060392 113.80159 89.053632 z M 114.89714 90.535195 C 114.99104 90.536295 115.1038 90.559459 115.23045 90.608059 C 115.46423 90.697769 115.5815 90.89094 115.4909 91.03749 C 115.27644 91.38454 114.90444 91.377477 114.68475 91.021987 C 114.50211 90.726473 114.61543 90.531896 114.89714 90.535195 z M 75.802364 91.039557 L 90.883614 91.086583 C 99.178294 91.112513 106.26252 91.159686 106.62632 91.191486 L 107.28778 91.249364 L 107.33636 109.76141 L 107.33636 109.76193 L 107.38545 119.09159 L 91.524402 119.08126 L 75.663354 119.07144 L 75.732601 109.64669 L 75.802364 91.039557 z M 146.97476 93.937055 C 147.83408 93.94745 148.87697 94.373166 149.37772 94.933893 C 150.05606 95.693473 150.51619 98.745711 150.37921 101.57742 C 150.22827 104.69785 148.92823 109.83303 147.6693 112.28115 C 147.19266 113.20802 146.23674 114.61615 145.54539 115.41016 C 144.49641 116.61491 144.13877 116.85469 143.38325 116.85969 C 141.55511 116.87247 140.87261 114.99964 140.84801 109.90094 C 140.82815 105.78635 141.12791 103.51347 142.08411 100.53045 C 143.27939 96.801578 145.26824 94.026172 146.80578 93.940672 C 146.86123 93.937592 146.91748 93.936362 146.97476 93.937055 z M 141.89652 95.560212 C 142.11468 95.559125 142.29367 95.564948 142.41639 95.578298 C 143.29585 95.673928 143.30328 95.68652 142.93315 96.445429 C 142.72656 96.869009 142.11282 98.591754 141.56941 100.27362 C 140.4682 103.68197 140.01765 107.00662 140.11265 111.01818 C 140.18037 113.87927 140.15466 113.9657 139.30288 113.7374 C 138.18674 113.43825 132.60954 110.86891 132.15861 110.44612 C 130.67472 109.05485 130.52283 105.40612 131.77207 101.16194 C 132.86581 97.446024 133.86443 96.271687 136.09067 96.083177 C 136.54172 96.044987 136.53724 96.081338 136.04158 96.523977 C 135.74457 96.789227 135.24664 97.672409 134.93467 98.486648 C 134.47759 99.679447 134.42991 100.05533 134.68921 100.42141 C 134.94704 100.78541 135.10392 100.83328 135.47934 100.66068 C 135.73707 100.54219 135.98696 100.29874 136.03486 100.12014 C 136.16416 99.637554 136.9398 99.641636 138.06575 100.13099 C 139.45132 100.7332 140.56747 100.58362 140.78651 99.766157 C 140.99736 98.979257 140.28975 98.519287 138.56701 98.323867 C 137.45653 98.197897 137.38495 98.149127 137.52728 97.617967 C 137.61136 97.304158 137.55726 96.807478 137.40687 96.514159 C 137.15546 96.023799 137.3103 95.96096 139.32872 95.731261 C 140.23426 95.628233 141.24206 95.563473 141.89652 95.560212 z M 40.317708 95.670799 C 41.845027 95.670799 42.832509 97.091727 43.861678 100.77126 C 44.325548 102.42972 44.454904 103.71323 44.528304 107.38585 C 44.633314 112.64058 44.571716 113.39751 43.834806 115.89902 C 43.224547 117.97063 41.988582 119.4833 40.906303 119.4833 C 38.216436 119.4833 36.18958 110.56906 37.024369 102.40941 C 37.476939 97.98578 38.60831 95.670799 40.317708 95.670799 z M 147.23986 96.804063 C 147.04015 96.803487 146.82003 96.843144 146.57944 96.922402 C 144.04013 97.758942 142.08051 104.19325 142.68407 109.71284 C 143.01557 112.7445 143.27765 113.49182 144.04058 113.58082 C 144.8334 113.67333 145.81773 112.5335 146.60734 110.60891 C 147.57526 108.24975 147.5095 108.48905 148.12043 105.11467 C 149.14083 99.478649 148.86612 96.808761 147.23986 96.804063 z M 147.15356 97.543036 C 147.96283 97.519926 148.18198 99.111566 147.7804 102.21304 C 147.1362 107.18819 145.88023 111.26462 144.65398 112.3597 C 144.08141 112.87106 144.023 112.87204 143.82974 112.37314 C 143.71539 112.07796 143.51119 110.4916 143.37602 108.84829 C 143.14698 106.06413 143.18249 105.66927 143.8902 103.05123 C 144.69713 100.06626 145.43887 98.578351 146.49934 97.818472 C 146.74858 97.639878 146.96681 97.54837 147.15356 97.543036 z M 115.37463 97.589028 C 115.47427 97.587527 115.57724 97.588398 115.68365 97.592129 C 116.91676 97.635379 118.65854 98.304332 118.46901 98.661831 C 117.73714 100.04235 117.39783 101.27136 117.32283 102.81197 C 117.24395 104.43205 117.33544 104.88915 118.04733 106.43707 C 119.0209 108.55396 118.93619 109.19844 117.5409 110.29626 C 116.31914 111.25755 115.68418 111.44948 114.82841 111.11688 C 113.97823 110.78646 113.38484 110.04566 112.52312 108.23747 C 111.9253 106.98305 111.8265 106.41722 111.8074 104.13643 C 111.78896 101.93273 111.88913 101.23864 112.40581 99.983198 C 113.12344 98.239506 113.87997 97.611555 115.37463 97.589028 z M 67.559456 97.918724 C 70.930491 97.918724 73.498319 105.51854 71.470329 109.49373 C 71.181889 110.05912 70.761842 110.67453 70.537052 110.86109 C 69.87995 111.4064 68.37036 111.64857 67.710868 111.31429 C 66.591568 110.74695 66.04905 109.69876 66.158508 108.31499 C 66.444559 104.6987 66.078666 102.38884 65.076404 101.48181 C 64.302493 100.78143 64.441109 100.08933 65.584383 98.946052 C 66.395335 98.135102 66.811064 97.918724 67.559456 97.918724 z M 130.3148 97.982803 C 130.48732 97.978379 130.65537 97.997967 130.81864 98.041714 C 131.49929 98.224094 131.58063 98.343756 131.42326 98.931065 C 131.24407 99.599875 131.23572 99.60076 130.84293 98.99256 C 130.54545 98.532131 130.32109 98.413979 129.95875 98.526439 C 129.11511 98.788309 128.68255 99.334472 128.86062 99.913951 C 129.07319 100.60572 130.00375 100.99676 130.33909 100.5351 C 130.8778 99.793456 131.04456 100.34339 130.68635 101.68025 C 130.48251 102.44099 130.25742 104.01392 130.18612 105.17565 C 130.11483 106.33736 130.04736 107.56301 130.03626 107.89899 C 130.01749 108.464 129.92883 108.48603 128.85081 108.19717 C 128.14731 108.00867 127.6602 107.76787 127.33875 107.37396 C 127.15726 105.66586 126.83201 104.52914 127.03748 102.42956 C 127.37532 100.33468 128.07345 98.962122 129.11539 98.360558 C 129.53427 98.118737 129.93525 97.992534 130.3148 97.982803 z M 43.967615 98.272191 L 45.840369 98.447374 C 48.083446 98.657454 48.735311 98.755959 51.152189 99.249909 C 53.677397 99.765998 54.35038 100.50084 54.57782 102.99077 C 54.66865 103.98515 54.772397 105.09658 54.808297 105.46038 C 54.844167 105.82418 54.810349 107.56788 54.732849 109.3356 C 54.576969 112.89303 54.410136 113.2734 52.607397 114.18853 C 51.645278 114.67694 48.379397 115.44271 46.177299 115.69593 L 44.906575 115.84218 L 45.118966 113.76013 C 45.235745 112.61506 45.311197 109.77309 45.286397 107.44476 C 45.249037 103.93358 45.132528 102.79018 44.604268 100.74181 L 43.967615 98.272191 z M 124.91306 98.424636 C 122.83549 101.93493 123.50882 104.21069 123.69195 107.25769 C 121.80018 107.32764 120.07377 107.42781 119.85549 107.48041 C 119.18125 107.64275 118.00341 104.95884 118.00341 103.26 C 118.00341 101.5602 118.4434 99.923317 119.0359 99.420958 C 119.7037 98.854739 122.15329 98.439536 124.91306 98.424636 z M 114.50646 98.823578 C 114.41839 98.810432 114.29663 98.831673 114.14266 98.890758 C 113.66807 99.072878 112.97632 101.39972 112.97632 102.813 C 112.97632 104.24361 113.432 106.67476 113.9189 107.84008 C 114.29105 108.73076 114.56231 108.94437 114.89662 108.61006 C 114.98274 108.52394 114.80149 107.89887 114.49406 107.221 C 113.73235 105.54145 113.65101 100.80138 114.3659 99.74962 C 114.73341 99.208916 114.77068 98.863017 114.50646 98.823578 z M 40.182316 99.161025 C 39.455599 99.18124 38.73245 99.798382 38.380359 100.9666 C 37.45429 104.03931 38.055723 111.22023 39.504321 114.38439 C 40.115751 115.71993 40.214031 115.80794 40.99932 115.73004 C 42.130389 115.61779 42.766786 114.69208 43.057076 112.73642 C 43.539315 109.48762 42.907002 103.03579 41.861283 100.53303 C 41.467257 99.59 40.823537 99.143189 40.182316 99.161025 z M 129.93136 99.182213 C 129.94933 99.181534 129.96702 99.183185 129.98459 99.187897 C 130.12514 99.225557 130.19405 99.429226 130.13755 99.640066 C 130.08106 99.850906 129.91999 99.992475 129.77943 99.954775 C 129.63887 99.917116 129.56997 99.713963 129.62647 99.503123 C 129.67591 99.318639 129.80556 99.186965 129.93136 99.182213 z M 69.191915 99.366181 C 68.908407 99.324772 68.973853 99.977455 69.478719 100.99761 C 70.232267 102.52025 70.767226 105.70269 70.545321 107.34347 C 70.464236 107.94305 70.474505 108.51028 70.568575 108.60438 C 70.993858 109.02967 71.303829 108.05305 71.297729 106.30581 C 71.289863 104.04371 70.534487 100.83476 69.786194 99.883462 C 69.521567 99.547044 69.320782 99.385003 69.191915 99.366181 z M 115.98337 99.449897 C 115.17509 99.41514 114.72765 100.35838 115.41028 101.04101 C 115.58491 101.21563 115.85896 101.35831 116.01903 101.35831 C 116.98209 101.35831 117.2511 99.869478 116.34976 99.527928 C 116.2218 99.479438 116.09884 99.454862 115.98337 99.449897 z M 66.822034 99.550666 C 66.783627 99.550888 66.745464 99.554867 66.707829 99.562035 C 66.252395 99.648765 65.999497 100.59836 66.254626 101.26322 C 66.493857 101.88664 67.846483 101.61866 67.944962 100.92836 C 68.035073 100.29673 67.398131 99.547337 66.822034 99.550666 z M 40.14821 99.951675 C 40.260042 99.941914 40.372452 100.0053 40.523897 100.13099 C 40.964617 100.49676 41.905876 103.13843 42.140336 104.66663 C 42.218476 105.17595 42.322963 106.72377 42.372363 108.10622 C 42.588713 114.15977 41.27345 117.12025 39.945121 113.56997 C 38.567053 109.88676 38.381588 101.92503 39.637646 100.37387 C 39.861409 100.09754 40.004424 99.964225 40.14821 99.951675 z M 116.03453 100.03539 C 116.0987 100.03539 116.15132 100.15445 116.15132 100.29997 C 116.15132 100.44549 116.02482 100.56456 115.87072 100.56456 C 115.71664 100.56456 115.66455 100.44549 115.75445 100.29997 C 115.84439 100.15445 115.97033 100.03539 116.03453 100.03539 z M 47.044429 100.23693 C 46.83976 100.23671 46.70063 100.24633 46.647038 100.2669 C 46.169428 100.45019 46.121597 101.98674 46.588127 102.15981 C 46.908076 102.27851 48.392075 102.49538 49.134224 102.53188 C 49.661074 102.55779 49.044644 103.24793 47.782886 104.04445 C 47.007236 104.53409 46.786564 104.8416 46.786564 105.43506 C 46.786564 105.85423 46.935393 106.25193 47.117293 106.31873 C 47.585633 106.49073 52.761191 106.32471 53.41665 106.11667 C 53.81918 105.98891 53.939971 105.7602 53.879671 105.23921 C 53.803171 104.5778 53.704167 104.52926 52.276668 104.45476 C 50.60554 104.3676 50.370079 104.087 51.482918 103.50805 C 52.540407 102.9579 53.463559 101.87778 53.356189 101.31645 C 53.276959 100.90218 52.80033 100.77694 50.150183 100.47361 C 48.866079 100.32664 47.658437 100.23758 47.044429 100.23693 z M 55.269767 100.69788 L 56.019592 100.69788 C 57.151531 100.69788 58.051943 101.56325 58.419962 103.00575 C 58.926282 104.99036 59.055229 109.17188 58.63442 109.9583 C 58.32975 110.52766 58.09728 110.61976 56.965271 110.61976 C 55.706362 110.61976 55.646539 110.58645 55.561739 109.84151 C 55.429819 108.68288 55.77432 106.74692 56.07902 106.93523 C 56.22347 107.02463 56.640352 107.02259 57.005062 106.93109 C 57.539631 106.79693 57.652188 106.62546 57.585388 106.04639 C 57.514838 105.43449 57.375554 105.32547 56.648494 105.31207 C 56.179025 105.30342 55.749514 105.24388 55.693514 105.17978 C 55.637554 105.11568 55.519498 104.08124 55.430998 102.8807 L 55.269767 100.69788 z M 135.22768 101.24927 C 134.36575 101.23964 133.93524 101.52 134.07891 102.08643 C 134.20056 102.56604 134.47082 102.69914 136.00282 103.03469 C 137.37737 103.33578 137.83612 103.53675 138.00942 103.91371 C 138.20056 104.32945 138.13226 104.41271 137.55208 104.47181 C 137.17695 104.51007 136.36625 104.3805 135.75064 104.18346 C 134.57298 103.8066 133.92617 103.90116 133.77299 104.47285 C 133.60947 105.08313 134.41188 105.50675 136.28291 105.79731 C 137.82542 106.03684 138.23893 105.99613 138.91221 105.53686 C 140.29865 104.59113 140.01175 102.50793 138.41921 101.95517 C 137.08446 101.49187 135.9882 101.25777 135.22768 101.24927 z M 128.93349 101.47613 C 128.44696 101.47013 127.92346 101.76986 127.78782 102.27608 C 127.56714 103.09968 128.30878 104.02043 129.05286 103.84653 L 129.05286 103.84601 C 129.71666 103.69089 130.1053 102.4422 129.67763 101.83838 C 129.50428 101.59365 129.2254 101.47973 128.93349 101.47613 z M 59.254537 102.06214 C 59.473656 102.05838 59.837014 102.15464 59.992476 102.15464 C 60.049796 103.69969 60.304819 110.23098 60.140788 109.9583 C 59.774758 109.19801 59.748195 109.57747 59.737195 108.30465 C 59.719925 106.30293 59.354386 102.8568 59.091756 102.21924 C 59.043685 102.10253 59.123065 102.0644 59.254537 102.06214 z M 64.773063 102.06834 C 64.78848 102.07538 64.656719 102.14641 64.82784 102.35773 C 65.72671 103.46779 65.804063 108.01109 64.938944 108.87619 C 64.747657 109.06749 63.341081 109.41904 61.813037 109.65703 C 61.662246 106.24393 61.652972 105.45827 61.384639 102.21355 C 64.31238 102.22292 64.747368 102.05662 64.773063 102.06834 z M 56.708439 102.15309 C 56.11595 102.15309 55.895975 102.28726 55.840275 102.68226 C 55.752735 103.30314 56.62595 103.93865 57.24174 103.70235 C 57.51263 103.5984 57.634504 103.29234 57.582804 102.84659 C 57.515934 102.26997 57.368128 102.15309 56.708439 102.15309 z M 128.95623 102.20735 C 128.98227 102.20908 129.00858 102.2138 129.03477 102.22079 L 129.03529 102.22079 C 129.42023 102.32429 129.4157 102.9011 129.02857 103.12461 C 128.72616 103.29921 128.43874 102.91336 128.55315 102.4864 C 128.60064 102.30917 128.77272 102.19514 128.95623 102.20735 z M 115.20048 103.21039 C 114.60149 103.21039 114.14483 104.42567 114.5571 104.92243 C 115.14468 105.63042 116.41591 105.25047 116.41591 104.36691 C 116.41591 103.92139 115.66857 103.21039 115.20048 103.21039 z M 68.668949 103.64034 C 68.614596 103.64499 68.558483 103.65425 68.501001 103.66928 C 67.854683 103.8383 67.519021 105.02956 68.027128 105.35135 C 68.531382 105.67066 68.892754 105.64844 69.266846 105.27435 C 69.923321 104.61787 69.484252 103.57051 68.668949 103.64034 z M 115.35757 104.00414 C 115.5031 104.00414 115.62216 104.1232 115.62216 104.26872 C 115.62216 104.41424 115.5031 104.53331 115.35757 104.53331 C 115.21205 104.53331 115.09299 104.41424 115.09299 104.26872 C 115.09299 104.1232 115.21205 104.00414 115.35757 104.00414 z M 68.671016 104.39636 C 68.856647 104.39562 69.055489 104.50656 69.055489 104.6811 C 69.055489 104.74527 68.869463 104.79789 68.642594 104.79789 C 68.415714 104.79789 68.305215 104.67707 68.396615 104.52917 C 68.45325 104.43754 68.559638 104.39681 68.671016 104.39636 z M 128.7087 104.9984 C 128.26708 104.99403 127.78517 105.35315 127.62711 105.94304 C 127.40053 106.78864 128.0851 107.43522 128.83995 107.08819 C 129.42132 106.82076 129.68549 105.84431 129.31693 105.32396 C 129.16024 105.10275 128.94002 105.00068 128.7087 104.9984 z M 128.61154 105.78646 C 128.65757 105.77792 128.70553 105.79558 128.74952 105.84227 C 128.86681 105.96681 128.95099 106.11258 128.93659 106.16628 C 128.9222 106.21997 128.77641 106.30415 128.61258 106.35335 C 128.44869 106.40256 128.36461 106.25678 128.42551 106.02934 C 128.4636 105.88716 128.53483 105.8007 128.61154 105.78646 z M 56.692936 105.82935 C 56.750229 105.82459 56.808533 105.83724 56.859334 105.86863 C 57.226314 106.09544 57.157686 106.25413 56.692936 106.25413 C 56.466036 106.25413 56.35504 106.1328 56.44644 105.9849 C 56.503564 105.89248 56.597448 105.83729 56.692936 105.82935 z M 135.12329 106.23605 C 134.30218 106.22626 133.69283 106.43853 133.38696 106.86236 C 132.16866 108.55053 132.8481 109.81652 135.32896 110.48126 C 136.68507 110.84466 137.08676 110.84163 137.89987 110.46111 L 137.89987 110.46059 C 138.96793 109.96078 139.22101 109.41345 138.952 108.18425 C 138.7339 107.18763 138.39372 106.91968 136.81053 106.49546 C 136.18499 106.32785 135.61596 106.24192 135.12329 106.23605 z M 116.58644 107.3166 C 116.2795 107.30785 115.99109 107.44698 115.80147 107.74758 C 115.59798 108.07017 115.64377 108.36323 115.97717 108.87206 C 116.48863 109.65264 116.88313 109.72698 117.62203 109.18109 C 118.1112 108.81966 118.11437 108.76628 117.68921 108.05661 C 117.40605 107.58394 116.98108 107.32784 116.58644 107.3166 z M 68.417285 107.73931 C 68.230721 107.74974 68.03772 107.82905 67.851945 107.98323 C 67.386135 108.36983 67.350097 109.33707 67.785282 109.77226 C 68.196445 110.18342 68.574906 110.17313 69.173311 109.73557 C 69.569707 109.44572 69.611047 109.24247 69.400688 108.61109 C 69.206197 108.02734 68.827725 107.71638 68.417285 107.73931 z M 56.8552 107.85559 C 56.628386 107.84283 56.411129 107.90071 56.258854 108.05299 C 55.771575 108.54027 56.246386 109.69372 56.934265 109.69372 C 57.271045 109.69372 57.625848 109.61398 57.722847 109.51698 C 57.819837 109.41996 57.899064 109.06517 57.899064 108.7284 C 57.899064 108.25546 57.354191 107.88365 56.8552 107.85559 z M 134.91193 107.89383 C 135.20869 107.89533 135.662 107.97695 136.27413 108.13826 C 137.86087 108.55663 138.24598 109.1593 137.00741 109.28547 C 135.97205 109.39094 135.186 109.14156 134.71711 108.5589 C 134.35706 108.11148 134.41735 107.89131 134.91193 107.89383 z M 116.81278 107.97289 C 117.03106 107.97289 117.20966 108.15149 117.20966 108.36977 C 117.20966 108.78293 116.89656 108.89486 116.59212 108.59042 C 116.28768 108.28599 116.39962 107.97289 116.81278 107.97289 z M 54.016614 108.02508 C 53.136758 108.00609 47.628387 108.45633 46.85271 108.62143 C 46.81641 108.62918 46.786564 109.23846 46.786564 109.97587 C 46.786564 111.12513 46.852695 111.29833 47.249585 111.18872 C 47.504245 111.11839 48.307913 110.98347 49.035522 110.88848 C 51.12106 110.6162 53.49065 109.9518 53.99646 109.49786 C 54.535189 109.01436 54.606994 108.21913 54.128235 108.03542 C 54.113492 108.02976 54.075271 108.02635 54.016614 108.02508 z M 68.42607 108.60489 C 68.458212 108.60381 68.493483 108.61408 68.530456 108.63693 C 68.678352 108.72833 68.730975 108.91384 68.647245 109.04931 C 68.420436 109.4163 68.261739 109.34818 68.261739 108.88343 C 68.261739 108.71325 68.329645 108.60813 68.42607 108.60489 z M 124.64641 114.86601 C 124.7617 114.87293 124.86149 114.99478 125.03864 115.23705 C 125.5925 115.99452 125.50494 116.53201 124.5043 118.51902 C 122.94929 121.60685 121.59897 122.38965 116.41539 123.20917 C 109.1309 124.36085 98.664425 125.38112 93.661222 125.42712 C 91.987735 125.44253 87.999135 125.48866 84.797681 125.52996 C 77.663008 125.62203 70.1081 125.29635 67.512948 124.78478 C 63.669489 124.02715 61.95378 122.25501 61.70555 118.78567 C 61.616441 117.54026 61.686287 116.72803 61.91949 116.29228 C 62.289502 115.60091 62.969556 115.41283 62.969556 116.00186 C 62.969556 116.57057 63.962743 117.31244 64.854195 117.41004 C 65.305492 117.45945 66.822452 117.72705 68.225049 118.00484 C 69.627648 118.28262 71.690946 118.58935 72.810299 118.68645 C 74.340012 118.81914 74.865725 118.96496 74.926965 119.27298 C 74.999183 119.63621 76.890856 119.69624 91.574528 119.80266 C 107.72693 119.91973 108.14352 119.91023 108.27273 119.41612 C 108.37236 119.03514 108.66065 118.90053 109.4339 118.87403 C 113.36293 118.73957 122.86121 116.35986 124.16014 115.18434 C 124.40017 114.9671 124.53112 114.85909 124.64641 114.86601 z M 122.52561 117.51391 C 122.33522 117.52015 122.00401 117.60587 121.44092 117.77384 C 113.77064 120.06198 109.59321 120.7633 99.482056 121.46096 C 95.436972 121.74006 85.388488 121.83357 82.945597 121.61495 C 82.363515 121.56286 80.657288 121.43978 79.153581 121.34158 C 77.649873 121.24338 76.221121 121.12613 75.978581 121.08113 C 75.73604 121.03608 74.882419 120.91631 74.082056 120.815 C 72.501023 120.61487 66.05795 119.23823 65.249003 118.92778 C 64.890887 118.79034 64.783468 118.83858 64.869698 119.09728 C 65.220702 120.15029 75.90513 121.90249 84.003931 122.23559 C 88.490325 122.42015 98.843214 122.35846 99.190601 122.14515 C 99.278214 122.09135 100.42133 121.97279 101.73101 121.88109 C 107.4804 121.47874 112.32043 120.82713 115.88622 119.97526 C 120.06326 118.97737 122.76539 118.09562 122.76539 117.73043 C 122.76539 117.58091 122.716 117.50767 122.52561 117.51391 z M 120.27562 119.73806 C 120.04455 119.73498 119.79599 119.82536 119.56868 120.03107 C 118.95033 120.59068 118.93901 120.77754 119.49117 121.3297 C 120.14126 121.9798 121.02936 121.74042 121.12776 120.8889 C 121.2068 120.20471 120.78396 119.74484 120.27562 119.73806 z M 120.26477 120.53595 C 120.4504 120.53521 120.64872 120.64615 120.64872 120.82069 C 120.64872 120.88487 120.46321 120.93747 120.23634 120.93747 C 120.00944 120.93747 119.89896 120.81665 119.99036 120.66876 C 120.047 120.57712 120.15339 120.53639 120.26477 120.53595 z M 65.624691 120.92714 C 64.957967 120.98118 64.408483 121.5912 64.777197 122.40043 C 64.997132 122.88314 65.281482 123.05414 65.864986 123.05414 C 66.898019 123.05414 67.339076 122.30762 66.778625 121.50747 C 66.466839 121.06233 66.024725 120.89471 65.624691 120.92714 z M 65.747681 121.73122 C 65.965961 121.73122 66.144556 121.90982 66.144556 122.1281 C 66.144556 122.54127 65.831977 122.6532 65.527539 122.34876 C 65.223099 122.04432 65.334515 121.73122 65.747681 121.73122 z M 102.65499 122.2852 C 102.4631 122.28694 102.26994 122.42065 102.00283 122.68775 C 101.47008 123.2205 101.59022 123.62364 102.40332 124.03238 C 103.49222 124.57975 104.17329 123.54977 103.29991 122.67639 C 103.03763 122.41409 102.84687 122.28345 102.65499 122.2852 z M 82.402478 122.85054 C 81.672411 122.90553 81.184051 123.55653 81.776676 124.2706 C 82.196575 124.77654 83.334661 124.64878 83.707308 124.05356 C 83.931731 123.6951 83.880551 123.51152 83.46908 123.19522 C 83.116027 122.92382 82.734326 122.82554 82.402478 122.85054 z M 102.78935 123.05414 C 103.02483 123.05414 103.14383 123.1732 103.05393 123.31872 C 102.964 123.46424 102.84495 123.58331 102.78935 123.58331 C 102.73377 123.58331 102.61466 123.46424 102.52476 123.31872 C 102.43482 123.1732 102.55389 123.05414 102.78935 123.05414 z M 82.488778 123.35283 C 82.585798 123.33498 82.713865 123.37741 82.841211 123.50476 C 83.031227 123.69478 83.035357 123.84317 82.854647 123.95486 C 82.706501 124.04642 82.506069 123.99202 82.408679 123.83445 C 82.251548 123.58022 82.327077 123.38258 82.488778 123.35283 z M 117.26288 123.6324 C 117.72693 123.59837 117.31761 124.1988 115.94203 125.60024 C 113.35783 128.23302 109.89018 130.88336 108.40968 131.35699 C 108.15387 131.43883 107.83486 131.77751 107.70068 132.10889 C 107.56659 132.44079 107.35136 133.60473 107.22267 134.69581 C 106.97169 136.82356 106.8725 136.7794 106.23927 134.25707 C 105.85415 132.72311 105.85984 132.55837 106.33693 131.44536 C 106.61566 130.79511 106.86726 129.92092 106.89556 129.50284 C 107.0469 127.26435 107.40625 127.33578 94.980522 127.1371 C 87.274097 127.01388 83.953793 127.05086 83.145585 127.26887 C 80.64972 127.94211 80.301616 129.99107 82.30946 132.19312 C 82.754987 132.68174 82.772779 132.89009 82.495496 134.3811 C 82.131284 136.33956 81.836621 136.21562 81.679525 134.03797 L 81.56532 132.45408 L 79.394393 131.58385 C 76.519692 130.43152 73.938388 128.7723 72.9953 127.47041 C 72.574476 126.88947 72.230051 126.3428 72.229972 126.2555 C 72.229892 126.1682 76.784039 126.13997 82.350285 126.19297 C 88.689425 126.25329 94.00339 126.17089 96.572156 125.97231 C 104.89502 125.32892 115.46272 124.14673 117.01122 123.68563 C 117.11289 123.65535 117.19659 123.63726 117.26288 123.6324 z M 90.637117 127.81251 C 97.119671 127.82689 105.50198 128.00953 105.8889 128.24866 C 106.27045 128.48448 106.10351 129.80331 105.48996 131.39782 C 104.91425 132.89398 104.81487 132.99853 103.57173 133.41475 C 102.85064 133.65618 101.34792 134.04244 100.23291 134.27258 C 94.050273 135.54871 85.174943 134.62778 83.377095 132.52385 C 81.37618 130.18228 81.302482 128.6519 83.157987 127.99234 C 83.542084 127.85581 86.747585 127.80388 90.637117 127.81251 z M 114.41293 128.05797 C 114.78824 128.06458 114.62165 129.21876 114.13077 132.54969 C 113.41603 137.3996 113.11836 137.41168 112.7536 132.60653 L 112.52467 129.59173 L 113.34581 128.84397 C 113.87121 128.36559 114.21634 128.05451 114.41293 128.05797 z M 84.487622 128.70496 C 83.606663 128.68494 83.060367 128.94121 83.536776 129.22276 C 83.940363 129.46128 88.908361 129.73939 95.646114 129.90075 C 102.95581 130.0758 104.77424 130.02412 104.77424 129.64185 C 104.77424 129.51098 104.68494 129.40091 104.5758 129.39691 C 104.46666 129.39296 101.46033 129.34602 97.895072 129.29252 C 91.698754 129.19957 87.566419 129.02141 84.88398 128.73131 C 84.746474 128.71644 84.613473 128.70782 84.487622 128.70496 z M 74.778654 130.23148 C 74.869692 130.22092 75.133371 130.31679 75.414274 130.46712 C 75.964622 130.76166 75.987815 130.89541 75.817867 132.80393 C 75.718733 133.91722 75.538118 135.24482 75.416341 135.75414 L 75.194649 136.68018 L 75.151241 135.75414 C 75.127188 135.24482 75.00932 133.81607 74.889241 132.57914 C 74.769169 131.34222 74.706739 130.29053 74.750749 130.24233 C 74.75625 130.23631 74.765648 130.23299 74.778654 130.23148 z M 86.141785 130.72861 C 85.776077 130.71384 85.388789 130.89359 85.168717 131.3048 C 84.905778 131.79611 84.947818 131.95332 85.448804 132.359 C 86.189126 132.95847 87.047156 132.58996 87.047156 131.67222 C 87.047156 131.08816 86.611981 130.7476 86.141785 130.72861 z M 101.96407 130.99164 C 100.75502 130.99164 100.54656 132.66573 101.70208 133.09539 C 102.4077 133.35778 102.86123 133.18725 103.21516 132.52591 C 103.56938 131.86405 102.85782 130.99164 101.96407 130.99164 z M 93.226623 131.25984 C 92.820495 131.25499 92.554111 132.00839 92.747066 132.61635 C 93.03329 133.51815 94.720072 133.14928 94.720072 132.18485 C 94.720072 131.62218 94.152713 131.27094 93.226623 131.25984 z M 85.988822 131.52081 C 86.134343 131.52081 86.253406 131.63987 86.253406 131.78539 C 86.253406 131.93091 86.134343 132.04997 85.988822 132.04997 C 85.843301 132.04997 85.724239 131.93091 85.724239 131.78539 C 85.724239 131.63987 85.843301 131.52081 85.988822 131.52081 z M 101.98113 131.67325 C 102.07426 131.67731 102.17775 131.71687 102.28085 131.80244 C 102.48456 131.97151 102.58638 132.2155 102.50668 132.34453 C 102.31367 132.6568 101.93399 132.64215 101.73153 132.31456 C 101.51784 131.96879 101.70172 131.66107 101.98113 131.67325 z M 93.661739 132.04997 C 93.80726 132.04997 93.926322 132.16904 93.926322 132.31456 C 93.926322 132.46008 93.80726 132.57914 93.661739 132.57914 C 93.516218 132.57914 93.397156 132.46008 93.397156 132.31456 C 93.397156 132.16904 93.516218 132.04997 93.661739 132.04997 z M 105.98967 136.37219 C 106.00641 136.376 106.0213 136.38419 106.03411 136.397 C 106.09836 136.46124 105.96893 136.77334 105.74679 137.09049 C 105.24521 137.80659 105.4387 138.36411 106.30231 138.69246 C 107.24506 139.05089 108.03108 138.31822 107.80558 137.29151 C 107.61686 136.43231 108.05202 136.28015 108.4691 137.05949 C 108.90033 137.86523 108.7934 138.52508 108.13062 139.14773 C 107.35463 139.87669 106.36894 139.881 105.4512 139.1591 C 104.87846 138.70858 104.76901 138.45562 104.90705 137.90233 C 105.07493 137.22943 105.73852 136.31499 105.98967 136.37219 z M 83.303715 136.81868 C 83.454619 136.80707 83.621021 136.96878 83.736247 137.33182 C 83.935631 137.96002 83.513689 138.81877 82.824674 139.18752 C 82.049298 139.60249 81.090823 139.51068 80.605688 138.97462 C 80.122782 138.44101 80.017148 137.20152 80.432572 136.94477 C 80.580508 136.85334 80.697156 137.0575 80.697156 137.40779 C 80.697156 137.75237 80.864065 138.26241 81.068192 138.54157 C 81.377768 138.96494 81.564306 139.00503 82.192672 138.78135 C 82.80977 138.56168 82.94563 138.35907 82.94353 137.66255 C 82.941942 137.1346 83.109695 136.8336 83.303715 136.81868 z M 74.06862 137.07706 C 74.750129 137.07706 74.781892 137.79495 74.148718 138.90279 C 73.606997 139.8506 73.873163 140.52717 74.901127 140.81481 C 75.517105 140.98717 75.513648 140.99395 74.797774 141.01945 C 73.987046 141.04836 72.759656 140.03062 72.759656 139.32963 C 72.759656 138.39771 73.526875 137.07706 74.06862 137.07706 z M 76.454521 137.07706 C 76.884616 137.07706 77.257572 138.04489 77.257572 139.16117 C 77.257572 139.95736 77.110879 140.32479 76.669495 140.63395 C 75.918845 141.15969 75.509315 141.16833 76.030257 140.64738 C 76.616877 140.06076 76.795053 139.28382 76.478292 138.69195 C 76.128979 138.03926 76.114896 137.07706 76.454521 137.07706 z M 114.55452 137.07706 C 115.72959 137.07706 116.01618 139.35265 114.97258 140.39623 C 114.08888 141.27998 113.00118 141.24501 112.09937 140.30373 C 111.70263 139.88961 111.38882 139.25958 111.38882 138.87798 C 111.38882 138.12116 112.28774 136.83146 112.59908 137.14165 C 112.70773 137.2499 112.58461 137.57234 112.32572 137.85841 C 111.75591 138.48803 111.94684 139.5781 112.69727 139.97972 C 113.90047 140.62365 115.33802 139.13713 114.4553 138.16175 C 113.88446 137.53102 113.92607 137.07706 114.55452 137.07706 z M 81.890365 137.27394 C 82.03614 137.26302 82.180312 137.39352 82.234013 137.67237 C 82.289787 137.96199 82.16029 138.13539 81.887781 138.13539 C 81.633583 138.13539 81.487505 137.96427 81.537414 137.72456 C 81.597246 137.4372 81.744589 137.28487 81.890365 137.27394 z M 106.77412 137.60622 C 107.00098 137.60622 107.1131 137.72529 107.0232 137.87081 C 106.93327 138.01633 106.74724 138.13539 106.6103 138.13539 C 106.47337 138.13539 106.36174 138.01633 106.36174 137.87081 C 106.36174 137.72529 106.54725 137.60622 106.77412 137.60622 z M 113.23522 138.22789 C 113.6141 138.2044 114.05078 138.51665 113.97833 138.89297 C 113.93314 139.12765 113.68864 139.3599 113.43521 139.4087 C 112.90685 139.51045 112.5144 138.75595 112.89674 138.37362 C 112.98931 138.28105 113.10893 138.23572 113.23522 138.22789 z M 75.312471 138.84284 C 75.429522 138.83114 75.546492 138.85321 75.650952 138.91777 C 75.849083 139.04028 75.938273 139.33076 75.848873 139.56373 C 75.650354 140.08106 74.611739 140.131 74.611739 139.62316 C 74.611739 139.21684 74.961321 138.87795 75.312471 138.84284 z " /><g
       aria-label="A"
       id="text1132"
       style="font-size:22.9335px;fill:#ffffff;stroke:#ffffff;stroke-width:1.91112"><path
         d="m 91.274878,98.763857 -3.068251,8.320113 h 6.147701 z m -1.276572,-2.228402 h 2.564342 l 6.371661,16.718615 h -2.35158 l -1.522928,-4.28884 h -7.536252 l -1.522928,4.28884 h -2.385174 z"
         id="path1545" /></g></g></svg>
